<mxfile host="app.diagrams.net" modified="2021-06-06T07:44:26.617Z" agent="5.0 (Macintosh; Intel Mac OS X 10_15_7) AppleWebKit/537.36 (KHTML, like Gecko) Chrome/93.0.4530.5 Safari/537.36" etag="-VQ071D5aqhY1QMn92iW" version="14.7.6" type="github">
  <diagram id="CCIx1nJYBqcQRO54KeJ1" name="Page-1">
    <mxGraphModel dx="1309" dy="789" grid="1" gridSize="10" guides="1" tooltips="1" connect="1" arrows="1" fold="1" page="1" pageScale="1" pageWidth="850" pageHeight="1100" math="0" shadow="0">
      <root>
        <mxCell id="0" />
        <mxCell id="1" parent="0" />
        <mxCell id="RWyGRk-tJpopODgYtM8n-37" style="edgeStyle=orthogonalEdgeStyle;rounded=0;orthogonalLoop=1;jettySize=auto;html=1;" parent="1" source="RWyGRk-tJpopODgYtM8n-21" edge="1">
          <mxGeometry relative="1" as="geometry">
            <mxPoint x="420" y="170" as="targetPoint" />
          </mxGeometry>
        </mxCell>
        <mxCell id="RWyGRk-tJpopODgYtM8n-21" value="Filebeat" style="swimlane;html=1;startSize=20;horizontal=1;containerType=tree;newEdgeStyle={&quot;edgeStyle&quot;:&quot;elbowEdgeStyle&quot;,&quot;startArrow&quot;:&quot;none&quot;,&quot;endArrow&quot;:&quot;none&quot;};" parent="1" vertex="1">
          <mxGeometry x="280" y="220" width="280" height="220" as="geometry" />
        </mxCell>
        <UserObject label="Output" treeRoot="1" id="RWyGRk-tJpopODgYtM8n-24">
          <mxCell style="whiteSpace=wrap;html=1;align=center;treeFolding=1;treeMoving=1;newEdgeStyle={&quot;edgeStyle&quot;:&quot;elbowEdgeStyle&quot;,&quot;startArrow&quot;:&quot;none&quot;,&quot;endArrow&quot;:&quot;none&quot;};fillColor=#dae8fc;strokeColor=#6c8ebf;" parent="RWyGRk-tJpopODgYtM8n-21" vertex="1">
            <mxGeometry x="80" y="40" width="120" height="40" as="geometry" />
          </mxCell>
        </UserObject>
        <UserObject label="Harvester" treeRoot="1" id="RWyGRk-tJpopODgYtM8n-29">
          <mxCell style="whiteSpace=wrap;html=1;align=center;treeFolding=1;treeMoving=1;newEdgeStyle={&quot;edgeStyle&quot;:&quot;elbowEdgeStyle&quot;,&quot;startArrow&quot;:&quot;none&quot;,&quot;endArrow&quot;:&quot;none&quot;};fillColor=#dae8fc;strokeColor=#6c8ebf;" parent="RWyGRk-tJpopODgYtM8n-21" vertex="1">
            <mxGeometry x="80" y="160" width="120" height="40" as="geometry" />
          </mxCell>
        </UserObject>
        <UserObject label="Processors" treeRoot="1" id="RWyGRk-tJpopODgYtM8n-28">
          <mxCell style="whiteSpace=wrap;html=1;align=center;treeFolding=1;treeMoving=1;newEdgeStyle={&quot;edgeStyle&quot;:&quot;elbowEdgeStyle&quot;,&quot;startArrow&quot;:&quot;none&quot;,&quot;endArrow&quot;:&quot;none&quot;};fillColor=#dae8fc;strokeColor=#6c8ebf;" parent="RWyGRk-tJpopODgYtM8n-21" vertex="1">
            <mxGeometry x="80" y="100" width="120" height="40" as="geometry" />
          </mxCell>
        </UserObject>
        <mxCell id="RWyGRk-tJpopODgYtM8n-31" style="edgeStyle=orthogonalEdgeStyle;rounded=0;orthogonalLoop=1;jettySize=auto;html=1;exitX=0.5;exitY=0;exitDx=0;exitDy=0;entryX=0.5;entryY=1;entryDx=0;entryDy=0;" parent="RWyGRk-tJpopODgYtM8n-21" source="RWyGRk-tJpopODgYtM8n-28" target="RWyGRk-tJpopODgYtM8n-24" edge="1">
          <mxGeometry relative="1" as="geometry" />
        </mxCell>
        <mxCell id="RWyGRk-tJpopODgYtM8n-32" style="edgeStyle=orthogonalEdgeStyle;rounded=0;orthogonalLoop=1;jettySize=auto;html=1;entryX=0.5;entryY=1;entryDx=0;entryDy=0;" parent="RWyGRk-tJpopODgYtM8n-21" source="RWyGRk-tJpopODgYtM8n-29" target="RWyGRk-tJpopODgYtM8n-28" edge="1">
          <mxGeometry relative="1" as="geometry" />
        </mxCell>
        <mxCell id="RWyGRk-tJpopODgYtM8n-40" value="&lt;b&gt;Elasticsearch&lt;/b&gt;" style="rounded=0;whiteSpace=wrap;html=1;fillColor=#d5e8d4;strokeColor=#82b366;" parent="1" vertex="1">
          <mxGeometry x="360" y="110" width="120" height="60" as="geometry" />
        </mxCell>
        <mxCell id="VPbj0Um9oFYfCWiC2QFQ-11" style="edgeStyle=orthogonalEdgeStyle;rounded=0;orthogonalLoop=1;jettySize=auto;html=1;entryX=0.5;entryY=1;entryDx=0;entryDy=0;" edge="1" parent="1" source="VPbj0Um9oFYfCWiC2QFQ-3" target="RWyGRk-tJpopODgYtM8n-29">
          <mxGeometry relative="1" as="geometry" />
        </mxCell>
        <mxCell id="VPbj0Um9oFYfCWiC2QFQ-3" value="Node File System" style="swimlane;" vertex="1" parent="1">
          <mxGeometry x="190" y="490" width="460" height="160" as="geometry" />
        </mxCell>
        <mxCell id="VPbj0Um9oFYfCWiC2QFQ-1" value="kafka log" style="strokeWidth=2;html=1;shape=mxgraph.flowchart.multi-document;whiteSpace=wrap;align=center;fillColor=#fff2cc;strokeColor=#d6b656;" vertex="1" parent="VPbj0Um9oFYfCWiC2QFQ-3">
          <mxGeometry x="20" y="70" width="88" height="60" as="geometry" />
        </mxCell>
        <mxCell id="VPbj0Um9oFYfCWiC2QFQ-2" value="&lt;font style=&quot;font-size: 11px&quot;&gt;&amp;nbsp;smart app log&lt;/font&gt;" style="strokeWidth=2;html=1;shape=mxgraph.flowchart.multi-document;whiteSpace=wrap;align=left;fillColor=#fff2cc;strokeColor=#d6b656;" vertex="1" parent="VPbj0Um9oFYfCWiC2QFQ-3">
          <mxGeometry x="130" y="70" width="88" height="60" as="geometry" />
        </mxCell>
        <mxCell id="VPbj0Um9oFYfCWiC2QFQ-4" value="&lt;span style=&quot;font-size: 11px&quot;&gt;media log&lt;/span&gt;" style="strokeWidth=2;html=1;shape=mxgraph.flowchart.multi-document;whiteSpace=wrap;align=center;fillColor=#fff2cc;strokeColor=#d6b656;" vertex="1" parent="VPbj0Um9oFYfCWiC2QFQ-3">
          <mxGeometry x="240" y="70" width="88" height="60" as="geometry" />
        </mxCell>
        <mxCell id="VPbj0Um9oFYfCWiC2QFQ-5" value="&lt;span style=&quot;font-size: 11px&quot;&gt;filbeat state&lt;/span&gt;" style="strokeWidth=2;html=1;shape=mxgraph.flowchart.multi-document;whiteSpace=wrap;align=center;fillColor=#ffe6cc;strokeColor=#d79b00;" vertex="1" parent="VPbj0Um9oFYfCWiC2QFQ-3">
          <mxGeometry x="350" y="70" width="88" height="60" as="geometry" />
        </mxCell>
      </root>
    </mxGraphModel>
  </diagram>
</mxfile>
